<svg width="216" height="243" viewBox="0 0 216 243" fill="none" xmlns="http://www.w3.org/2000/svg">
<path d="M206.638 53.7657L117.348 2.2271C112.204 -0.742365 103.786 -0.742365 98.6428 2.2271L9.35254 53.7657C4.20827 56.7345 0 64.0228 0 69.961V173.039C0.400187 179.955 3.93337 185.682 9.35254 189.234L98.6428 240.773C103.786 243.742 112.204 243.742 117.348 240.773L206.638 189.234C212.453 185.368 215.762 179.549 215.991 173.039V69.961C215.782 63.713 212.039 57.4111 206.638 53.7657ZM35.9984 121.5C35.5754 51.216 129.737 20.1812 170.344 85.4881L139.185 103.514C120.376 72.4111 73.673 83.5324 71.9969 121.5C72.5002 156.493 118.403 172.748 139.188 139.485L170.346 157.51C134.56 219.619 37.8032 197.273 35.9984 121.5ZM179.992 125.499H171.992V133.497H163.993V125.499H155.993V117.501H163.993V109.504H171.992V117.501H179.992V125.499ZM209.991 125.499H201.991V133.497H193.992V125.499H185.992V117.501H193.992V109.504H201.991V117.501H209.991V125.499Z" fill="url(#paint0_linear)"/>
<defs>
<linearGradient id="paint0_linear" x1="126" y1="121" x2="86" y2="183" gradientUnits="userSpaceOnUse">
<stop stop-color="#FF7A00"/>
<stop offset="0.682292" stop-color="#FF0000"/>
</linearGradient>
</defs>
</svg>
