<svg width="185" height="185" viewBox="0 0 185 185" fill="none" xmlns="http://www.w3.org/2000/svg">
<path d="M78.6267 184.041C78.6267 183.764 77.3062 183.549 75.655 183.549C74.0039 183.549 72.6831 183.334 72.6831 183.058C72.6831 182.782 71.791 182.567 70.7019 182.567C69.6118 182.567 68.7206 182.352 68.7206 182.075C68.7206 181.799 68.0511 181.584 67.2343 181.584C66.4174 181.584 65.748 181.353 65.748 181.092C65.748 180.816 65.0801 180.601 64.2617 180.601C63.4448 180.601 62.7753 180.386 62.7753 180.109C62.7753 179.833 62.1059 179.618 61.289 179.618C60.4722 179.618 59.8027 179.403 59.8027 179.127C59.8027 178.85 59.3575 178.635 58.8124 178.635C58.2673 178.635 57.822 178.42 57.822 178.144C57.822 177.867 57.1525 177.652 56.3357 177.652C55.5188 177.652 54.8494 177.437 54.8494 177.161C54.8494 176.884 54.4041 176.669 53.859 176.669C53.3139 176.669 52.8686 176.454 52.8686 176.178C52.8686 175.902 52.4234 175.687 51.8783 175.687C51.3332 175.687 50.8879 175.456 50.8879 175.195C50.8879 174.919 50.4426 174.704 49.8975 174.704C49.3525 174.704 48.9072 174.489 48.9072 174.212C48.9072 173.936 48.4619 173.721 47.9168 173.721C47.3717 173.721 46.9264 173.506 46.9264 173.229C46.9264 172.953 46.5303 172.738 46.0451 172.738C45.5599 172.738 44.8428 172.293 44.4499 171.755C44.0568 171.218 43.3889 170.772 42.9636 170.772C42.5398 170.772 41.8704 170.327 41.4773 169.789C41.0842 169.237 40.4562 168.791 40.0816 168.791C39.7054 168.791 38.7749 168.131 38.0109 167.302C37.2478 166.488 36.3657 165.812 36.0512 165.812C35.7364 165.812 34.1669 164.476 32.5625 162.839C30.9583 161.206 29.3944 159.867 29.0875 159.867C28.2752 159.867 27.1143 158.577 27.1143 157.673C27.1143 157.227 26.6936 156.889 26.1239 156.889C25.5573 156.889 25.1336 156.552 25.1336 156.122C25.1336 155.692 23.7962 154.036 22.1617 152.434C20.5272 150.829 19.19 149.22 19.19 148.856C19.19 148.488 18.7447 147.873 18.1996 147.474C17.6546 147.09 17.2093 146.414 17.2093 145.984C17.2093 145.554 16.764 144.894 16.2189 144.495C15.6738 144.095 15.2285 143.435 15.2285 143.005C15.2285 142.575 14.7833 141.915 14.2382 141.515C13.6931 141.116 13.2478 140.41 13.2478 139.921C13.2478 139.43 13.0252 139.046 12.7519 139.046C12.4801 139.046 12.2559 138.601 12.2559 138.048C12.2559 137.51 12.0333 137.065 11.7615 137.065C11.4882 137.065 11.2656 136.62 11.2656 136.082C11.2656 135.545 11.0429 135.099 10.7696 135.099C10.4978 135.099 10.2737 134.7 10.2737 134.224C10.2737 133.732 9.8284 133.026 9.28331 132.628C8.70139 132.214 8.29295 131.338 8.29295 130.538C8.29295 129.786 8.07031 129.156 7.797 129.156C7.52523 129.156 7.30106 128.711 7.30106 128.173C7.30106 127.636 7.07843 127.19 6.80512 127.19C6.53334 127.19 6.30917 126.515 6.30917 125.701C6.30917 124.887 6.08654 124.211 5.81323 124.211C5.54145 124.211 5.31728 123.551 5.31728 122.721C5.31728 121.907 5.09465 121.232 4.82134 121.232C4.54957 121.232 4.3254 120.556 4.3254 119.742C4.3254 118.928 4.10275 118.252 3.82945 118.252C3.55614 118.252 3.33351 117.362 3.33351 116.271C3.33351 115.181 3.11088 114.292 2.83757 114.292C2.56579 114.292 2.34162 113.401 2.34162 112.308C2.34162 111.217 2.11898 110.328 1.84568 110.328C1.55701 110.328 1.34974 108.677 1.34974 106.366C1.34974 104.055 1.14398 102.404 0.853793 102.404C0.540569 102.404 0.357849 98.9377 0.357849 92.9914C0.357849 87.0497 0.540569 83.5821 0.853793 83.5821C1.14246 83.5821 1.34974 81.9297 1.34974 79.6184C1.34974 77.3072 1.55549 75.6547 1.84568 75.6547C2.11899 75.6547 2.34162 74.5337 2.34162 73.1792C2.34162 71.8124 2.56426 70.7021 2.83757 70.7021C3.10934 70.7021 3.33351 70.0417 3.33351 69.2124C3.33351 68.3985 3.55616 67.7228 3.82945 67.7228C4.10123 67.7228 4.3254 66.8321 4.3254 65.7432C4.3254 64.6529 4.54803 63.7606 4.82134 63.7606C5.09312 63.7606 5.31728 63.1003 5.31728 62.271C5.31728 61.4571 5.53992 60.7814 5.81323 60.7814C6.085 60.7814 6.30917 60.336 6.30917 59.7985C6.30917 59.2456 6.53181 58.8003 6.80512 58.8003C7.07843 58.8003 7.30106 58.1246 7.30106 57.3106C7.30106 56.4967 7.52371 55.821 7.797 55.821C8.06878 55.821 8.29295 55.3756 8.29295 54.8228C8.29295 54.2853 8.51559 53.8399 8.78889 53.8399C9.06067 53.8399 9.28483 53.3946 9.28483 52.8571C9.28483 52.3196 9.50747 51.8589 9.78078 51.8589C10.0526 51.8589 10.2767 51.4135 10.2767 50.8606C10.2767 50.3231 10.4994 49.8778 10.7727 49.8778C11.0444 49.8778 11.2686 49.4324 11.2686 48.8949C11.2686 48.3574 11.4912 47.9121 11.7646 47.9121C12.0363 47.9121 12.259 47.5128 12.259 47.0367C12.259 46.5453 12.7042 45.8389 13.2493 45.4411C13.7944 45.0418 14.2397 44.3815 14.2397 43.9515C14.2397 43.5215 14.685 42.8611 15.2301 42.4618C15.7751 42.0779 16.2204 41.4022 16.2204 40.9722C16.2204 40.5422 16.6657 39.8818 17.2108 39.4825C17.7559 39.0832 18.2012 38.469 18.2012 38.1004C18.2012 37.7318 19.0933 36.5647 20.1823 35.5235C21.2725 34.4792 22.1635 33.3765 22.1635 33.0801C22.1635 32.3737 32.3887 22.152 33.0934 22.152C33.3898 22.152 34.4907 21.2613 35.5368 20.1694C36.584 19.079 37.7429 18.1883 38.1128 18.1883C38.4828 18.1883 39.1062 17.743 39.4993 17.2055C39.8924 16.668 40.5603 16.2226 40.9856 16.2226C41.4109 16.2226 42.0788 15.7772 42.4719 15.2244C42.865 14.6869 43.5329 14.2415 43.9582 14.2415C44.382 14.2415 45.0515 13.7962 45.4445 13.2587C45.8376 12.7212 46.5547 12.2758 47.0399 12.2758C47.5251 12.2758 47.9212 12.0608 47.9212 11.7844C47.9212 11.508 48.3665 11.293 48.9116 11.293C49.4567 11.293 49.902 11.078 49.902 10.8015C49.902 10.5251 50.3472 10.3101 50.8923 10.3101C51.4374 10.3101 51.8827 10.0797 51.8827 9.81868C51.8827 9.54225 52.328 9.32725 52.8731 9.32725C53.4181 9.32725 53.8634 9.11225 53.8634 8.83582C53.8634 8.55939 54.3087 8.34439 54.8538 8.34439C55.3989 8.34439 55.8442 8.12939 55.8442 7.85297C55.8442 7.57654 56.5121 7.36154 57.3305 7.36154C58.1473 7.36154 58.8168 7.14654 58.8168 6.87011C58.8168 6.59368 59.2621 6.37868 59.8071 6.37868C60.3522 6.37868 60.7975 6.16368 60.7975 5.88725C60.7975 5.61082 61.467 5.39582 62.2838 5.39582C63.1007 5.39582 63.7701 5.18082 63.7701 4.90439C63.7701 4.62796 64.6622 4.41296 65.7513 4.41296C66.8415 4.41296 67.7327 4.18261 67.7327 3.92154C67.7327 3.64511 68.4021 3.43011 69.219 3.43011C70.0358 3.43011 70.7053 3.21511 70.7053 2.93868C70.7053 2.66225 71.82 2.44725 73.1818 2.44725C74.5437 2.44725 75.6583 2.23225 75.6583 1.95582C75.6583 1.66404 77.3092 1.46439 79.6207 1.46439C81.9321 1.46439 83.5831 1.26475 83.5831 0.972965C83.5831 0.665822 87.0502 0.481537 92.9939 0.481537C98.9375 0.481537 102.405 0.665822 102.405 0.972965C102.405 1.26475 104.056 1.46439 106.367 1.46439C108.679 1.46439 110.33 1.67939 110.33 1.95582C110.33 2.23225 111.222 2.44725 112.311 2.44725C113.401 2.44725 114.292 2.66225 114.292 2.93868C114.292 3.21511 115.184 3.43011 116.273 3.43011C117.363 3.43011 118.254 3.66046 118.254 3.92154C118.254 4.19796 118.924 4.41296 119.741 4.41296C120.558 4.41296 121.227 4.62796 121.227 4.90439C121.227 5.18082 121.895 5.39582 122.713 5.39582C123.53 5.39582 124.2 5.61082 124.2 5.88725C124.2 6.16368 124.868 6.37868 125.686 6.37868C126.503 6.37868 127.172 6.59368 127.172 6.87011C127.172 7.14654 127.618 7.36154 128.163 7.36154C128.708 7.36154 129.153 7.57654 129.153 7.85297C129.153 8.12939 129.772 8.34439 130.53 8.34439C131.338 8.34439 132.202 8.75904 132.621 9.32725C133.014 9.86475 133.731 10.3255 134.216 10.3255C134.701 10.3255 135.098 10.5405 135.098 10.8169C135.098 11.0933 135.543 11.3083 136.088 11.3083C136.633 11.3083 137.078 11.5233 137.078 11.7997C137.078 12.0762 137.524 12.2912 138.069 12.2912C138.614 12.2912 139.059 12.5062 139.059 12.7826C139.059 13.059 139.455 13.274 139.94 13.274C140.425 13.274 141.143 13.7194 141.536 14.2569C141.929 14.7944 142.597 15.2397 143.022 15.2397C143.446 15.2397 144.115 15.6851 144.508 16.238C144.901 16.7755 145.569 17.2208 145.994 17.2208C146.418 17.2208 147.088 17.6662 147.481 18.2037C147.874 18.7412 148.493 19.1865 148.856 19.1865C149.22 19.1865 150.83 20.5226 152.434 22.1597C154.039 23.7921 155.698 25.1297 156.122 25.1297C156.562 25.1297 156.892 25.5597 156.892 26.1126C156.892 26.6808 157.223 27.0955 157.671 27.0955C158.574 27.0955 159.864 28.2626 159.864 29.0704C159.864 29.3775 161.202 30.9409 162.836 32.5442C164.471 34.149 165.808 35.7185 165.808 36.0333C165.808 36.3405 166.477 37.2312 167.294 37.9929C168.111 38.7607 168.781 39.6899 168.781 40.0646C168.781 40.4331 169.226 41.0628 169.771 41.4621C170.316 41.8614 170.761 42.5217 170.761 42.9517C170.761 43.3817 171.207 44.0421 171.752 44.4414C172.297 44.8253 172.742 45.5471 172.742 46.037C172.742 46.5284 172.965 46.9123 173.238 46.9123C173.51 46.9123 173.734 47.3577 173.734 47.8952C173.734 48.4327 173.957 48.878 174.23 48.878C174.502 48.878 174.726 49.3234 174.726 49.8609C174.726 50.3984 174.948 50.8437 175.221 50.8437C175.493 50.8437 175.717 51.2891 175.717 51.842C175.717 52.3795 175.94 52.8402 176.213 52.8402C176.485 52.8402 176.709 53.2855 176.709 53.823C176.709 54.3605 176.932 54.8059 177.205 54.8059C177.477 54.8059 177.701 55.4662 177.701 56.2955C177.701 57.1095 177.924 57.7852 178.197 57.7852C178.469 57.7852 178.693 58.2305 178.693 58.7834C178.693 59.3209 178.915 59.7816 179.189 59.7816C179.46 59.7816 179.684 60.442 179.684 61.2712C179.684 62.0852 179.907 62.7609 180.18 62.7609C180.452 62.7609 180.676 63.4366 180.676 64.2505C180.676 65.0645 180.899 65.7402 181.171 65.7402C181.444 65.7402 181.666 66.4005 181.666 67.2298C181.666 68.0437 181.889 68.7195 182.162 68.7195C182.434 68.7195 182.658 69.6102 182.658 70.7005C182.658 71.7909 182.881 72.6831 183.154 72.6831C183.429 72.6831 183.65 74.0038 183.65 75.6532C183.65 77.3056 183.87 78.6264 184.146 78.6264C184.466 78.6264 184.642 83.7449 184.642 92.9899C184.642 102.235 184.465 107.353 184.146 107.353C183.871 107.353 183.65 108.674 183.65 110.325C183.65 111.976 183.43 113.297 183.154 113.297C182.882 113.297 182.658 113.972 182.658 114.786C182.658 115.6 182.436 116.276 182.162 116.276C181.89 116.276 181.666 117.167 181.666 118.257C181.666 119.347 181.444 120.238 181.171 120.238C180.899 120.238 180.676 120.898 180.676 121.728C180.676 122.542 180.453 123.217 180.18 123.217C179.908 123.217 179.684 123.878 179.684 124.707C179.684 125.521 179.462 126.197 179.189 126.197C178.917 126.197 178.693 126.642 178.693 127.195C178.693 127.732 178.47 128.178 178.197 128.178C177.923 128.178 177.701 128.623 177.701 129.161C177.701 129.713 177.478 130.159 177.205 130.159C176.933 130.159 176.709 130.834 176.709 131.648C176.709 132.462 176.486 133.138 176.213 133.138C175.941 133.138 175.717 133.583 175.717 134.121C175.717 134.674 175.495 135.119 175.221 135.119C174.95 135.119 174.726 135.518 174.726 135.994C174.726 136.486 174.28 137.192 173.735 137.589C173.19 137.988 172.745 138.694 172.745 139.184C172.745 139.676 172.522 140.06 172.249 140.06C171.977 140.06 171.753 140.459 171.753 140.935C171.753 141.426 171.308 142.133 170.763 142.53C170.218 142.914 169.772 143.59 169.772 144.02C169.772 144.45 169.327 145.111 168.782 145.51C168.237 145.909 167.792 146.523 167.792 146.892C167.792 147.26 166.899 148.428 165.81 149.469C164.72 150.513 163.829 151.616 163.829 151.912C163.829 152.619 152.612 163.832 151.908 163.832C151.612 163.832 150.512 164.723 149.465 165.813C148.418 166.904 147.259 167.795 146.889 167.795C146.519 167.795 145.896 168.24 145.503 168.777C145.11 169.33 144.442 169.776 144.016 169.776C143.593 169.776 142.923 170.221 142.53 170.758C142.137 171.296 141.469 171.741 141.044 171.741C140.62 171.741 139.951 172.187 139.558 172.724C139.165 173.262 138.448 173.707 137.962 173.707C137.477 173.707 137.081 173.922 137.081 174.198C137.081 174.475 136.636 174.69 136.091 174.69C135.546 174.69 135.1 174.92 135.1 175.181C135.1 175.458 134.655 175.673 134.11 175.673C133.565 175.673 133.12 175.888 133.12 176.164C133.12 176.441 132.452 176.656 131.633 176.656C130.816 176.656 130.147 176.871 130.147 177.147C130.147 177.423 129.702 177.638 129.157 177.638C128.612 177.638 128.166 177.853 128.166 178.13C128.166 178.406 127.721 178.621 127.176 178.621C126.631 178.621 126.185 178.836 126.185 179.113C126.185 179.389 125.516 179.604 124.699 179.604C123.882 179.604 123.213 179.819 123.213 180.096C123.213 180.372 122.543 180.587 121.727 180.587C120.91 180.587 120.24 180.817 120.24 181.078C120.24 181.355 119.348 181.57 118.259 181.57C117.169 181.57 116.278 181.785 116.278 182.061C116.278 182.338 115.61 182.553 114.792 182.553C113.975 182.553 113.305 182.768 113.305 183.044C113.305 183.321 111.985 183.536 110.333 183.536C108.682 183.536 107.362 183.751 107.362 184.027C107.362 184.35 102.243 184.518 92.9978 184.518C83.7521 184.518 78.6339 184.334 78.6339 184.027L78.6267 184.041ZM105.373 172.153C105.373 171.876 106.265 171.661 107.354 171.661C108.445 171.661 109.336 171.446 109.336 171.17C109.336 170.894 110.45 170.679 111.812 170.679C113.174 170.679 114.289 170.464 114.289 170.187C114.289 169.911 114.958 169.696 115.775 169.696C116.592 169.696 117.261 169.465 117.261 169.204C117.261 168.928 117.929 168.713 118.748 168.713C119.564 168.713 120.234 168.498 120.234 168.221C120.234 167.945 120.903 167.73 121.72 167.73C122.537 167.73 123.206 167.515 123.206 167.239C123.206 166.962 123.652 166.747 124.197 166.747C124.742 166.747 125.187 166.532 125.187 166.256C125.187 165.979 125.632 165.764 126.178 165.764C126.723 165.764 127.168 165.549 127.168 165.273C127.168 164.996 127.613 164.781 128.158 164.781C128.703 164.781 129.149 164.566 129.149 164.29C129.149 164.014 129.594 163.799 130.139 163.799C130.684 163.799 131.129 163.568 131.129 163.307C131.129 163.031 131.575 162.816 132.12 162.816C132.665 162.816 133.11 162.601 133.11 162.324C133.11 162.048 133.506 161.833 133.991 161.833C134.477 161.833 135.194 161.388 135.587 160.85C135.98 160.297 136.608 159.852 136.982 159.852C137.359 159.852 138.289 159.176 139.053 158.362C139.816 157.548 140.704 156.873 141.024 156.873C141.345 156.873 142.464 155.982 143.511 154.891C144.558 153.801 145.659 152.912 145.958 152.912C146.665 152.912 152.921 146.655 152.921 145.946C152.921 145.654 153.814 144.548 154.903 143.501C155.993 142.457 156.884 141.334 156.884 141.013C156.884 140.691 157.553 139.8 158.37 139.043C159.187 138.275 159.857 137.347 159.857 136.971C159.857 136.603 160.302 135.973 160.847 135.574C161.392 135.174 161.837 134.468 161.837 133.978C161.837 133.487 162.06 133.103 162.333 133.103C162.605 133.103 162.829 132.657 162.829 132.105C162.829 131.567 163.052 131.122 163.325 131.122C163.597 131.122 163.821 130.676 163.821 130.139C163.821 129.586 164.044 129.141 164.317 129.141C164.589 129.141 164.813 128.695 164.813 128.158C164.813 127.62 165.035 127.175 165.308 127.175C165.58 127.175 165.803 126.73 165.803 126.177C165.803 125.639 166.026 125.178 166.299 125.178C166.571 125.178 166.795 124.733 166.795 124.196C166.795 123.658 167.017 123.213 167.29 123.213C167.562 123.213 167.786 122.552 167.786 121.723C167.786 120.909 168.009 120.233 168.282 120.233C168.556 120.233 168.778 119.558 168.778 118.744C168.778 117.93 169.001 117.254 169.274 117.254C169.546 117.254 169.77 116.594 169.77 115.765C169.77 114.951 169.993 114.275 170.266 114.275C170.538 114.275 170.762 113.154 170.762 111.798C170.762 110.431 170.984 109.322 171.258 109.322C171.529 109.322 171.753 108.431 171.753 107.34C171.753 106.249 171.976 105.359 172.249 105.359C172.567 105.359 172.745 100.736 172.745 92.4816C172.745 84.2256 172.567 79.6031 172.249 79.6031C171.977 79.6031 171.753 78.7123 171.753 77.622C171.753 76.5316 171.531 75.6394 171.258 75.6394C170.986 75.6394 170.762 74.7487 170.762 73.6599C170.762 72.5695 170.539 71.6788 170.266 71.6788C169.992 71.6788 169.77 70.7881 169.77 69.6962C169.77 68.6058 169.547 67.7151 169.274 67.7151C169.002 67.7151 168.778 67.2697 168.778 66.7322C168.778 66.1947 168.555 65.7494 168.282 65.7494C168.01 65.7494 167.786 65.0737 167.786 64.2597C167.786 63.4458 167.564 62.7701 167.29 62.7701C167.019 62.7701 166.795 62.1097 166.795 61.2805C166.795 60.4665 166.572 59.7908 166.299 59.7908C166.027 59.7908 165.803 59.3455 165.803 58.7926C165.803 58.2551 165.58 57.7944 165.308 57.7944C165.035 57.7944 164.813 57.349 164.813 56.8115C164.813 56.274 164.59 55.8287 164.317 55.8287C164.045 55.8287 163.821 55.4294 163.821 54.9533C163.821 54.4619 163.376 53.7555 162.83 53.3577C162.285 52.9584 161.84 52.252 161.84 51.7621C161.84 51.2707 161.617 50.8867 161.344 50.8867C161.072 50.8867 160.848 50.4875 160.848 50.0114C160.848 49.52 160.403 48.8135 159.858 48.4173C159.313 48.0334 158.867 47.4037 158.867 47.0198C158.867 46.6512 158.198 45.7145 157.381 44.9481C156.564 44.1803 155.895 43.3126 155.895 43.0116C155.895 42.2898 143.69 30.0901 142.973 30.0901C142.67 30.0901 141.8 29.4144 141.036 28.6005C140.273 27.7865 139.341 27.1108 138.965 27.1108C138.589 27.1108 137.961 26.6655 137.568 26.128C137.175 25.5905 136.507 25.1451 136.082 25.1451C135.658 25.1451 134.988 24.6997 134.595 24.1469C134.202 23.6094 133.485 23.164 133 23.164C132.515 23.164 132.119 22.949 132.119 22.6726C132.119 22.3962 131.673 22.1812 131.128 22.1812C130.583 22.1812 130.138 21.9508 130.138 21.6897C130.138 21.4133 129.693 21.1983 129.148 21.1983C128.602 21.1983 128.157 20.9833 128.157 20.7069C128.157 20.4305 127.712 20.2155 127.167 20.2155C126.622 20.2155 126.176 20.0005 126.176 19.724C126.176 19.4476 125.731 19.2326 125.186 19.2326C124.641 19.2326 124.196 19.0176 124.196 18.7412C124.196 18.4647 123.526 18.2498 122.709 18.2498C121.893 18.2498 121.223 18.0347 121.223 17.7583C121.223 17.4819 120.554 17.2669 119.737 17.2669C118.92 17.2669 118.25 17.0519 118.25 16.7755C118.25 16.499 117.805 16.284 117.26 16.284C116.715 16.284 116.27 16.0537 116.27 15.7926C116.27 15.5162 115.378 15.3012 114.288 15.3012C113.198 15.3012 112.307 15.0862 112.307 14.8097C112.307 14.5333 110.987 14.3183 109.335 14.3183C107.684 14.3183 106.364 14.1033 106.364 13.8269C106.364 13.5505 105.249 13.3355 103.887 13.3355C102.525 13.3355 101.411 13.1205 101.411 12.844C101.411 12.5369 98.2736 12.3526 92.9904 12.3526C87.7071 12.3526 84.5702 12.5369 84.5702 12.844C84.5702 13.1205 83.2497 13.3355 81.5984 13.3355C79.9474 13.3355 78.6265 13.5505 78.6265 13.8269C78.6265 14.1033 77.5118 14.3183 76.15 14.3183C74.7881 14.3183 73.6735 14.5333 73.6735 14.8097C73.6735 15.0862 72.7814 15.3012 71.6923 15.3012C70.6021 15.3012 69.7111 15.5315 69.7111 15.7926C69.7111 16.069 69.0432 16.284 68.2248 16.284C67.4079 16.284 66.7385 16.499 66.7385 16.7755C66.7385 17.0519 66.2932 17.2669 65.7481 17.2669C65.203 17.2669 64.7577 17.4819 64.7577 17.7583C64.7577 18.0347 64.0883 18.2498 63.2714 18.2498C62.4546 18.2498 61.7851 18.4647 61.7851 18.7412C61.7851 19.0176 61.3398 19.2326 60.7948 19.2326C60.2497 19.2326 59.8044 19.4476 59.8044 19.724C59.8044 20.0005 59.3591 20.2155 58.814 20.2155C58.2689 20.2155 57.8237 20.4305 57.8237 20.7069C57.8237 20.9833 57.3784 21.1983 56.8333 21.1983C56.2882 21.1983 55.8429 21.4287 55.8429 21.6897C55.8429 21.9662 55.3976 22.1812 54.8526 22.1812C54.3075 22.1812 53.8622 22.3962 53.8622 22.6726C53.8622 22.949 53.4169 23.164 52.8718 23.164C52.3267 23.164 51.8814 23.379 51.8814 23.6555C51.8814 23.9319 51.4853 24.1469 51.0001 24.1469C50.5149 24.1469 49.7979 24.5922 49.4049 25.1451C49.0119 25.6826 48.3839 26.128 48.0092 26.128C47.633 26.128 46.7026 26.8037 45.9385 27.6176C45.1754 28.4315 44.2933 29.1072 43.9788 29.1072C43.6641 29.1072 42.0945 30.4433 40.4901 32.0773C38.8859 33.7129 37.3221 35.0505 37.0151 35.0505C36.295 35.0505 35.0418 36.3097 35.0418 37.0239C35.0418 37.331 33.7044 38.8944 32.0701 40.4976C30.4354 42.1025 29.0982 43.672 29.0982 43.9868C29.0982 44.3093 28.4288 45.1846 27.6119 45.9464C26.795 46.7142 26.1256 47.6418 26.1256 48.018C26.1256 48.3866 25.6803 49.0162 25.1352 49.4155C24.5901 49.8148 24.1449 50.5212 24.1449 51.0111C24.1449 51.5026 23.9222 51.8865 23.6489 51.8865C23.3771 51.8865 23.153 52.3319 23.153 52.8847C23.153 53.4222 22.9303 53.8676 22.657 53.8676C22.3853 53.8676 22.1611 54.3129 22.1611 54.8504C22.1611 55.4033 21.9384 55.8486 21.6651 55.8486C21.3934 55.8486 21.1692 56.294 21.1692 56.8315C21.1692 57.369 20.9466 57.8143 20.6733 57.8143C20.4015 57.8143 20.1773 58.2597 20.1773 58.8126C20.1773 59.3501 19.9547 59.8108 19.6814 59.8108C19.4096 59.8108 19.1854 60.2561 19.1854 60.7936C19.1854 61.3311 18.9628 61.7765 18.6895 61.7765C18.4177 61.7765 18.1935 62.4368 18.1935 63.2661C18.1935 64.0801 17.9709 64.7558 17.6976 64.7558C17.4258 64.7558 17.2017 65.2011 17.2017 65.754C17.2017 66.2915 16.979 66.7369 16.7057 66.7369C16.4324 66.7369 16.2098 67.3972 16.2098 68.2265C16.2098 69.0404 15.9871 69.7161 15.7138 69.7161C15.442 69.7161 15.2179 70.6068 15.2179 71.7003C15.2179 72.7906 14.9952 73.6798 14.7219 73.6798C14.4502 73.6798 14.226 74.8009 14.226 76.1554C14.226 77.5222 14.0034 78.6325 13.73 78.6325C13.4552 78.6325 13.2341 79.9532 13.2341 81.6041C13.2341 83.2581 13.0145 84.5772 12.7382 84.5772C12.428 84.5772 12.2422 87.7147 12.2422 92.996C12.2422 98.2789 12.4265 101.416 12.7382 101.416C13.0099 101.416 13.2341 102.537 13.2341 103.892C13.2341 105.259 13.4567 106.369 13.73 106.369C14.0049 106.369 14.226 107.69 14.226 109.342C14.226 110.992 14.4456 112.312 14.7219 112.312C14.9952 112.312 15.2179 113.203 15.2179 114.296C15.2179 115.387 15.4405 116.276 15.7138 116.276C15.9856 116.276 16.2098 116.721 16.2098 117.274C16.2098 117.812 16.4324 118.257 16.7057 118.257C16.9775 118.257 17.2017 118.933 17.2017 119.747C17.2017 120.561 17.4243 121.236 17.6976 121.236C17.9694 121.236 18.1935 121.897 18.1935 122.726C18.1935 123.54 18.4162 124.216 18.6895 124.216C18.9613 124.216 19.1854 124.661 19.1854 125.198C19.1854 125.751 19.4081 126.197 19.6814 126.197C19.9531 126.197 20.1773 126.642 20.1773 127.195C20.1773 127.732 20.3999 128.178 20.6733 128.178C20.945 128.178 21.1692 128.623 21.1692 129.161C21.1692 129.713 21.3919 130.159 21.6651 130.159C21.9369 130.159 22.1611 130.604 22.1611 131.142C22.1611 131.679 22.3837 132.124 22.657 132.124C22.9288 132.124 23.153 132.524 23.153 133C23.153 133.491 23.5983 134.198 24.1433 134.595C24.6884 134.995 25.1337 135.655 25.1337 136.085C25.1337 136.515 25.579 137.175 26.1241 137.575C26.6692 137.974 27.1144 138.588 27.1144 138.972C27.1144 139.341 27.7824 140.278 28.6008 141.044C29.4176 141.812 30.0871 142.679 30.0871 142.982C30.0871 143.704 42.2922 155.902 43.0091 155.902C43.3115 155.902 44.1837 156.578 44.9463 157.392C45.7094 158.206 46.6415 158.881 47.0169 158.881C47.3931 158.881 48.0211 159.327 48.4141 159.864C48.8072 160.417 49.5243 160.862 50.0095 160.862C50.4947 160.862 50.8908 161.077 50.8908 161.354C50.8908 161.63 51.2869 161.845 51.7721 161.845C52.2573 161.845 52.9744 162.291 53.3673 162.828C53.7604 163.366 54.4774 163.826 54.9627 163.826C55.4478 163.826 55.844 164.041 55.844 164.318C55.844 164.594 56.2893 164.809 56.8344 164.809C57.3794 164.809 57.8247 165.024 57.8247 165.301C57.8247 165.577 58.27 165.792 58.8151 165.792C59.3602 165.792 59.8055 166.007 59.8055 166.283C59.8055 166.56 60.4734 166.775 61.2918 166.775C62.1086 166.775 62.7781 166.99 62.7781 167.266C62.7781 167.543 63.446 167.758 64.2644 167.758C65.0813 167.758 65.7507 167.973 65.7507 168.249C65.7507 168.526 66.196 168.741 66.7411 168.741C67.2862 168.741 67.7314 168.971 67.7314 169.232C67.7314 169.508 68.6235 169.723 69.7126 169.723C70.8028 169.723 71.6938 169.938 71.6938 170.215C71.6938 170.491 72.5859 170.706 73.675 170.706C74.7652 170.706 75.6563 170.921 75.6563 171.198C75.6563 171.474 76.5484 171.689 77.6375 171.689C78.7277 171.689 79.6187 171.904 79.6187 172.181C79.6187 172.503 84.2416 172.672 92.4966 172.672C100.752 172.672 105.375 172.488 105.375 172.181L105.373 172.153ZM81.5985 113.212V73.5892H64.7582H47.9178V62.6918V51.7944H92.9906H138.063V61.9838C138.063 70.1538 137.925 72.3146 137.355 72.8812C136.77 73.4648 133.77 73.5877 120.02 73.5877H103.392V113.211V152.837H92.495H81.5982V113.211L81.5985 113.212Z" fill="url(#paint0_linear)"/>
<defs>
<linearGradient id="paint0_linear" x1="110" y1="67" x2="32" y2="175" gradientUnits="userSpaceOnUse">
<stop stop-color="#FF8A00"/>
<stop offset="1" stop-color="#FF0000"/>
</linearGradient>
</defs>
</svg>
